<svg width="60" height="60" viewBox="0 0 60 60" fill="none" xmlns="http://www.w3.org/2000/svg">
<path d="M30 60C46.5685 60 60 46.5685 60 30C60 13.4315 46.5685 0 30 0C13.4315 0 0 13.4315 0 30C0 46.5685 13.4315 60 30 60Z" fill="#F5F9FE"/>
<g clip-path="url(#clip0)">
<path d="M22.8274 39.2088L21.0969 38.7418L20.1179 37.2403C19.7794 36.721 19.0169 36.7206 18.6782 37.2403L17.6992 38.7418L15.9687 39.2088C15.3702 39.3703 15.1343 40.0954 15.5238 40.5781L16.6493 41.9731L16.5587 43.7633C16.5273 44.3825 17.144 44.8307 17.7235 44.6095L19.3981 43.9702L21.0726 44.6095C21.651 44.8302 22.2689 44.3839 22.2374 43.7633L22.1468 41.9731L23.2724 40.5781C23.6616 40.0956 23.4262 39.3705 22.8274 39.2088Z" fill="#2074FD"/>
<path d="M44.0305 39.2088L42.3 38.7418L41.321 37.2403C40.9825 36.721 40.22 36.7206 39.8813 37.2403L38.9024 38.7418L37.1718 39.2088C36.5733 39.3703 36.3374 40.0954 36.7269 40.5781L37.8524 41.9731L37.7619 43.7633C37.7305 44.3825 38.3471 44.8307 38.9266 44.6095L40.6012 43.9702L42.2757 44.6095C42.8543 44.8302 43.472 44.3834 43.4405 43.7633L43.3499 41.9731L44.4755 40.5781C44.8648 40.0956 44.6294 39.3705 44.0305 39.2088Z" fill="#2074FD"/>
<path d="M35.1583 37.1755L32.3232 36.4105L30.7195 33.9505C30.3809 33.4312 29.6184 33.4308 29.2797 33.9505L27.6759 36.4105L24.8408 37.1755C24.2422 37.3372 24.0063 38.0621 24.3959 38.5448L26.2398 40.8304L26.0914 43.7631C26.06 44.3823 26.6766 44.8306 27.2562 44.6094L29.9996 43.5619L32.743 44.6094C33.3214 44.8301 33.9393 44.3834 33.9078 43.7631L33.7594 40.8304L35.6033 38.5448C35.9926 38.0623 35.7573 37.3372 35.1583 37.1755Z" fill="#2074FD"/>
<path d="M23.125 32.578H36.8748C37.3494 32.578 37.7341 32.1932 37.7341 31.7186V28.2239C37.7341 25.8546 35.8066 23.9271 33.4373 23.9271H29.9999H26.5624C24.1932 23.9271 22.2656 25.8546 22.2656 28.2239V31.7186C22.2656 32.1932 22.6504 32.578 23.125 32.578Z" fill="#2074FD"/>
<path d="M29.9765 23.0677C32.1089 23.0677 33.8436 21.3329 33.8436 19.2006C33.8436 17.0682 32.1088 15.3334 29.9765 15.3334C27.8442 15.3334 26.1094 17.0683 26.1094 19.2006C26.1094 21.3329 27.8441 23.0677 29.9765 23.0677Z" fill="#2074FD"/>
</g>
<defs>
<clipPath id="clip0">
<rect width="29.3333" height="29.3333" fill="white" transform="translate(15.333 15.3333)"/>
</clipPath>
</defs>
</svg>
