<svg width="60" height="60" viewBox="0 0 60 60" fill="none" xmlns="http://www.w3.org/2000/svg">
<path d="M30 60C46.5685 60 60 46.5685 60 30C60 13.4315 46.5685 0 30 0C13.4315 0 0 13.4315 0 30C0 46.5685 13.4315 60 30 60Z" fill="#F5F9FE"/>
<g clip-path="url(#clip0)">
<path d="M34.8289 28.7001C35.9799 27.1533 36.5882 25.3164 36.5882 23.3884V18.4844C36.5882 18.0098 36.2034 17.625 35.7288 17.625C34.6429 17.625 33.6666 17.0216 33.1809 16.0503L33.06 15.8084C32.9144 15.5172 32.6169 15.3333 32.2913 15.3333H27.708C27.3825 15.3333 27.0849 15.5172 26.9394 15.8084L26.8184 16.0503C26.3327 17.0216 25.3564 17.625 24.2705 17.625C23.7959 17.625 23.4111 18.0098 23.4111 18.4844V23.3884C23.4111 25.3164 24.0195 27.1533 25.1704 28.7002C26.3214 30.2471 27.906 31.3577 29.7527 31.9117C29.8332 31.9359 29.9164 31.948 29.9997 31.948C30.0829 31.948 30.1661 31.9359 30.2467 31.9117C32.0934 31.3576 33.6779 30.2471 34.8289 28.7001ZM33.038 22.6278L29.7971 25.8687C29.6293 26.0365 29.4093 26.1204 29.1895 26.1204C28.9695 26.1204 28.7496 26.0365 28.5818 25.8687L26.9614 24.2482C26.6258 23.9127 26.6258 23.3685 26.9614 23.0329C27.2969 22.6974 27.8411 22.6974 28.1767 23.0329L29.1895 24.0457L31.8228 21.4125C32.1584 21.0769 32.7025 21.0769 33.0381 21.4125C33.3737 21.7481 33.3737 22.2922 33.038 22.6278Z" fill="#2074FD"/>
<path d="M42.8992 23.1829C41.9629 23.2086 41.2287 24.0002 41.2287 24.9367V32.0624L37.9804 37.6478C37.8255 37.9142 37.5406 38.0781 37.2324 38.0781C36.5654 38.0781 36.1493 37.3553 36.4841 36.7784L38.7441 32.8844C39.3139 31.8974 38.9758 30.6354 37.9888 30.0656C37.0422 29.519 35.8336 29.8055 35.2329 30.7188L31.9947 35.6425C31.4414 36.4839 31.1465 37.4688 31.1465 38.4758V43.8072C31.1465 44.2818 31.5313 44.6666 32.0059 44.6666H40.9422C41.4168 44.6666 41.8016 44.2818 41.8016 43.8072V40.6562L44.6662 33.7812V24.901C44.6662 23.9357 43.8704 23.1563 42.8992 23.1829Z" fill="#2074FD"/>
<path d="M24.7663 30.7188C24.1657 29.8055 22.9571 29.5191 22.0105 30.0656C21.0235 30.6354 20.6853 31.8974 21.2552 32.8844L23.5152 36.7784C23.85 37.3553 23.4338 38.078 22.7669 38.0781C22.4587 38.0781 22.1738 37.9142 22.0189 37.6478L18.7705 32.0624V24.9367C18.7705 24.0002 18.0363 23.2086 17.1001 23.1829C16.1288 23.1563 15.333 23.9357 15.333 24.901V33.7812L18.1976 40.6562V43.8072C18.1976 44.2818 18.5824 44.6666 19.057 44.6666H27.9934C28.468 44.6666 28.8528 44.2818 28.8528 43.8072V38.4758C28.8528 37.4688 28.5579 36.4839 28.0046 35.6425L24.7663 30.7188Z" fill="#2074FD"/>
</g>
<defs>
<clipPath id="clip0">
<rect width="29.3333" height="29.3333" fill="white" transform="translate(15.333 15.3333)"/>
</clipPath>
</defs>
</svg>
