<svg width="60" height="60" viewBox="0 0 60 60" fill="none" xmlns="http://www.w3.org/2000/svg">
<path d="M30 60C46.5685 60 60 46.5685 60 30C60 13.4315 46.5685 0 30 0C13.4315 0 0 13.4315 0 30C0 46.5685 13.4315 60 30 60Z" fill="#F5F9FE"/>
<g clip-path="url(#clip0)">
<path d="M24.9425 34.7461C22.4966 33.1093 20.8828 30.3218 20.8828 27.1642C20.8828 23.5099 23.0441 20.3515 26.1552 18.8986H17.5586V34.7461H24.9425Z" fill="#2074FD"/>
<path d="M39.1171 27.1641C39.1171 30.3217 37.5033 33.1093 35.0574 34.7461H42.4414V18.8985H33.8447C36.9558 20.3514 39.1171 23.5099 39.1171 27.1641Z" fill="#2074FD"/>
<path d="M30 34.5235C34.058 34.5235 37.3594 31.2221 37.3594 27.1642C37.3594 23.1062 34.058 19.8048 30 19.8048C25.942 19.8048 22.6406 23.1062 22.6406 27.1642C22.6406 31.2221 25.942 34.5235 30 34.5235ZM26.7606 25.7403L29.1784 28.1582L33.2053 23.6467L34.5166 24.8172L29.251 30.7167L25.5177 26.9833L26.7606 25.7403Z" fill="#2074FD"/>
<path d="M15 36.504V36.6525C15 39.1057 16.9959 41.1016 19.4492 41.1016H40.5509C43.0042 41.1016 45.0001 39.1057 45.0001 36.6525V36.504H15Z" fill="#2074FD"/>
</g>
<defs>
<clipPath id="clip0">
<rect width="30" height="30" fill="white" transform="translate(15 15.0001)"/>
</clipPath>
</defs>
</svg>
