<svg width="80" height="80" viewBox="0 0 80 80" fill="none" xmlns="http://www.w3.org/2000/svg">
<rect width="80" height="80" rx="8" fill="#2074FD" fill-opacity="0.2"/>
<g clip-path="url(#clip0)">
<path d="M63.9998 36.8038V46.1597H56.7136L56.5658 46.172L56.1113 40.5045L56.157 40.5006L58.9151 32.9394H60.1354C62.2698 32.9394 63.9998 34.6694 63.9998 36.8038Z" fill="#2074FD"/>
<path d="M59.0408 25.8878V27.3612C59.0408 29.3963 57.391 31.0456 55.3563 31.0456C53.3216 31.0456 51.6719 29.3963 51.6719 27.3612V25.8878C51.6719 23.8531 53.3216 22.2033 55.3563 22.2033C57.391 22.2033 59.0408 23.8531 59.0408 25.8878Z" fill="#2074FD"/>
<path d="M56.9934 33.2171L56.2561 35.3769H54.6592L53.9219 33.2059L56.9934 33.2171Z" fill="#2074FD"/>
<path d="M56.5664 46.1721L56.6999 47.8294L55.5169 48.6279L54.3037 47.8294L54.436 46.178L54.8916 40.5034L55.1888 36.8118H55.816L56.112 40.5046L56.5664 46.1721Z" fill="#2074FD"/>
<path d="M54.8913 40.5033L54.4356 46.178L54.2048 46.1597H51.0086V44.0646C51.0086 41.5866 49.1662 39.4951 46.708 39.1825L46.712 39.1507V36.8038C46.712 34.6694 48.442 32.9394 50.5764 32.9394H51.7967L54.8476 40.5005L54.8913 40.5033Z" fill="#2074FD"/>
<path d="M51.0082 46.1596V55.9791H41.6745L41.4906 51.5046L41.4795 51.2614L44.4449 39.1435H46.0864C46.2937 39.1435 46.5015 39.1566 46.7076 39.1824C49.1658 39.495 51.0082 41.5865 51.0082 44.0645V46.1596Z" fill="#2074FD"/>
<path d="M44.6921 30.163V32.0404C44.6921 34.6316 42.5911 36.7327 39.9999 36.7327C37.4086 36.7327 35.3076 34.6316 35.3076 32.0404V30.163C35.3076 27.5718 37.4086 25.4707 39.9999 25.4707C42.5911 25.4707 44.6921 27.5718 44.6921 30.163Z" fill="#2074FD"/>
<path d="M42.1408 39.4968L41.1238 41.5307L39.2464 41.5176L38.2295 39.4837L42.1408 39.4968Z" fill="#2074FD"/>
<path d="M41.4795 51.2615L41.4906 51.5046L41.6745 55.9792L41.7071 56.7777L40.19 57.7946L38.6348 56.7777L38.6717 55.9812L38.8882 51.3076L39.2461 43.5514L41.1235 43.5645L41.4795 51.2615Z" fill="#2074FD"/>
<path d="M28.9912 46.1596V44.0645C28.9912 41.581 30.8424 39.4867 33.3073 39.1812C33.5083 39.1558 33.7105 39.1435 33.9131 39.1435H35.5545L38.8882 51.3063V51.3075L38.6717 55.9811L38.6371 55.9791H28.9912V46.1596Z" fill="#2074FD"/>
<path d="M33.2879 39.0117L33.3074 39.1813C30.8425 39.4868 28.9913 41.5811 28.9913 44.0646V46.1597H25.8662L25.8531 46.1605L25.3994 40.5045L25.4451 40.5006L28.2032 32.9394H29.4235C31.5579 32.9394 33.2879 34.6694 33.2879 36.8038V39.0117Z" fill="#2074FD"/>
<path d="M28.3289 25.8878V27.3612C28.3289 29.3963 26.6791 31.0456 24.6444 31.0456C22.6097 31.0456 20.96 29.3963 20.96 27.3612V25.8878C20.96 23.8531 22.6097 22.2033 24.6444 22.2033C26.6791 22.2033 28.3289 23.8531 28.3289 25.8878Z" fill="#2074FD"/>
<path d="M26.2815 33.2171L25.5442 35.3769H23.9472L23.21 33.2059L26.2815 33.2171Z" fill="#2074FD"/>
<path d="M25.8537 46.1606L25.988 47.8294L24.805 48.6279L23.5918 47.8294L23.7261 46.1618L24.1797 40.5034L24.4769 36.8118H25.1041L25.4001 40.5046L25.8537 46.1606Z" fill="#2074FD"/>
<path d="M24.1793 40.5033L23.7256 46.1617L23.6943 46.1597H16V36.8038C16 34.6694 17.73 32.9394 19.8644 32.9394H21.0847L24.1356 40.5006L24.1793 40.5033Z" fill="#2074FD"/>
</g>
<defs>
<clipPath id="clip0">
<rect width="48" height="48" fill="white" transform="translate(16 16)"/>
</clipPath>
</defs>
</svg>
