<svg width="60" height="60" viewBox="0 0 60 60" fill="none" xmlns="http://www.w3.org/2000/svg">
<path d="M30 60C46.5685 60 60 46.5685 60 30C60 13.4315 46.5685 0 30 0C13.4315 0 0 13.4315 0 30C0 46.5685 13.4315 60 30 60Z" fill="#F5F9FE"/>
<g clip-path="url(#clip0)">
<g clip-path="url(#clip1)">
<path d="M15 27.1145V42.1247H21.8114V27.1145H15ZM18.4057 39.8666C17.8775 39.8666 17.4493 39.4384 17.4493 38.9102C17.4493 38.382 17.8775 37.9538 18.4057 37.9538C18.9339 37.9538 19.3622 38.382 19.3622 38.9102C19.3622 39.4384 18.9339 39.8666 18.4057 39.8666Z" fill="#2074FD"/>
<path d="M44.3304 27.3348C44.3304 26.1418 43.3633 25.1747 42.1703 25.1747H34.1099C34.1099 25.1747 35.8891 23.0884 35.8891 19.2874C35.8891 17.9549 34.8089 16.8746 33.4763 16.8746C32.1438 16.8746 31.0635 17.9549 31.0635 19.2874C31.0635 21.7734 29.0054 22.8307 27.5114 24.8358C26.2611 26.514 26.1743 28.4591 24.3196 28.4591C24.093 28.4591 23.8963 28.4591 23.7246 28.4591V41.274C24.6439 41.686 25.3198 42.4552 26.2513 42.4552C27.5233 42.4552 40.2603 42.4552 40.2603 42.4552C41.4532 42.4552 42.4203 41.4881 42.4203 40.2952C42.4203 39.1022 41.4532 38.1351 40.2603 38.1351H40.897C42.0899 38.1351 43.057 37.168 43.057 35.9751C43.057 34.7821 42.0899 33.815 40.897 33.815H41.5337C42.7267 33.815 43.6938 32.848 43.6938 31.6549C43.6938 30.4619 42.7267 29.4949 41.5337 29.4949H42.1704C43.3633 29.4949 44.3304 28.5278 44.3304 27.3348Z" fill="#2074FD"/>
</g>
</g>
<defs>
<clipPath id="clip0">
<rect width="29.3333" height="29.3333" fill="white" transform="translate(15.333 15.3333)"/>
</clipPath>
<clipPath id="clip1">
<rect width="29.33" height="29.33" fill="white" transform="translate(15 15)"/>
</clipPath>
</defs>
</svg>
