<svg width="60" height="60" viewBox="0 0 60 60" fill="none" xmlns="http://www.w3.org/2000/svg">
<path d="M30 60C46.5685 60 60 46.5685 60 30C60 13.4315 46.5685 0 30 0C13.4315 0 0 13.4315 0 30C0 46.5685 13.4315 60 30 60Z" fill="#F5F9FE"/>
<g clip-path="url(#clip0)">
<g clip-path="url(#clip1)">
<path d="M28.324 27.947C28.324 23.7939 31.0214 20.2596 34.7545 19.0076C33.1839 18.036 31.3609 17.5046 29.4904 17.4897C26.7663 17.4683 23.3396 18.513 21.4051 20.4321C19.4681 22.3538 18.4013 24.9157 18.4013 27.646C18.4013 28.3211 18.2343 28.9933 17.9182 29.59L16.1999 32.834C15.9209 33.3587 15.9347 33.9781 16.2368 34.491C16.539 35.0042 17.0744 35.3168 17.6689 35.3272L18.3986 35.3273V37.9243C18.3986 39.4772 19.6609 40.7405 21.2123 40.7405H23.0411V41.5C23.0411 42.7905 24.0901 43.8405 25.3796 43.8405H34.2755C35.565 43.8405 36.614 42.7905 36.614 41.5V39.8182C36.614 38.9844 36.6778 38.1505 36.8042 37.3253C32.05 36.8544 28.324 32.8281 28.324 27.947Z" fill="#2074FD"/>
<path d="M37.6343 20.2429C33.384 20.2429 29.9385 23.693 29.9385 27.9489C29.9385 32.2047 33.384 35.6548 37.6343 35.6548C41.8847 35.6548 45.3302 32.2047 45.3302 27.9489C45.3302 23.693 41.8846 20.2429 37.6343 20.2429ZM38.4936 32.4717C38.4936 32.9462 38.1088 33.331 37.6343 33.331C37.1597 33.331 36.775 32.9462 36.775 32.4717V31.5781C36.775 31.1035 37.1597 30.7188 37.6343 30.7188C38.1088 30.7188 38.4936 31.1035 38.4936 31.5781V32.4717ZM38.7666 28.6719C38.6033 28.7347 38.4936 28.9049 38.4936 29.0954C38.4936 29.57 38.1088 29.9547 37.6343 29.9547C37.1597 29.9547 36.775 29.57 36.775 29.0954C36.775 28.1987 37.3276 27.3838 38.1501 27.0678C38.7447 26.8393 39.1141 26.2569 39.0693 25.6185C39.0195 24.908 38.4226 24.3233 37.7104 24.2872C37.297 24.2659 36.9084 24.4152 36.617 24.7067C36.2814 25.0423 35.7373 25.0423 35.4018 24.7067C35.0662 24.3711 35.0662 23.8271 35.4018 23.4915C36.032 22.8612 36.9052 22.5261 37.7973 22.5709C39.3885 22.6515 40.6723 23.91 40.7836 25.4983C40.8816 26.8953 40.071 28.1707 38.7666 28.6719Z" fill="#2074FD"/>
</g>
</g>
<defs>
<clipPath id="clip0">
<rect width="29.3333" height="29.3333" fill="white" transform="translate(15.333 15.3333)"/>
</clipPath>
<clipPath id="clip1">
<rect width="29.33" height="29.33" fill="white" transform="translate(16 16)"/>
</clipPath>
</defs>
</svg>
