<svg width="80" height="80" viewBox="0 0 80 80" fill="none" xmlns="http://www.w3.org/2000/svg">
<rect width="80" height="80" rx="8" fill="#2074FD" fill-opacity="0.2"/>
<g clip-path="url(#clip0)">
<path d="M56.6045 29.7404C57.5651 29.74 58.481 30.1468 59.1246 30.86C59.7686 31.5728 60.0801 32.525 59.9823 33.4805V41.7354L57.2803 45.451L57.0824 49.7434L56.6952 57.9983C56.6608 59.05 55.7951 59.8828 54.7428 59.8767H50.8295C49.7756 59.879 48.9105 59.0432 48.8771 57.9899L48.292 45.4427L45.5733 41.7273V33.4724C45.4755 32.5167 45.7873 31.5644 46.431 30.8516C47.0749 30.1388 47.9905 29.732 48.9511 29.732H49.8821L52.782 31.874L55.789 29.732H56.6045V29.7404Z" fill="#2074FD"/>
<path d="M55.9289 23.7263V25.0361C55.9289 26.8425 54.4646 28.3067 52.6583 28.3067C50.852 28.3067 49.3877 26.8425 49.3877 25.0361V23.7263C49.3877 21.92 50.852 20.4557 52.6583 20.4557C54.4646 20.4557 55.9289 21.92 55.9289 23.7263Z" fill="#2074FD"/>
<path d="M31.0488 29.4932C32.0095 29.4929 32.925 29.8996 33.569 30.6128C34.2126 31.3256 34.5244 32.2778 34.4266 33.2333V41.4882L31.7243 45.2039L31.5267 49.4962L31.1396 57.7511C31.1052 58.8028 30.2392 59.6356 29.1871 59.6295H25.2739C24.2199 59.6318 23.3549 58.796 23.3211 57.7427L22.7364 45.1955L20.0177 41.4801V33.2333C19.9198 32.2778 20.2314 31.3256 20.8753 30.6128C21.5193 29.8996 22.4348 29.4929 23.3954 29.4932H24.3264L25.5291 34.1067L26.7813 31.6844H27.5639L28.9233 34.1067L30.2334 29.4932H31.0488Z" fill="#2074FD"/>
<path d="M30.3732 23.4791V24.7889C30.3732 26.5953 28.909 28.0595 27.1026 28.0595C25.2963 28.0595 23.832 26.5953 23.832 24.7889V23.4791C23.832 21.6728 25.2963 20.2085 27.1026 20.2085C28.909 20.2085 30.3732 21.6728 30.3732 23.4791Z" fill="#2074FD"/>
<path d="M35.7527 36.6194C35.7527 36.6274 35.7443 36.6274 35.7443 36.6358C35.7356 36.6448 35.7298 36.6564 35.7279 36.6686C35.7279 36.677 35.7195 36.677 35.7195 36.6853C35.7115 36.6934 35.7115 36.7098 35.7031 36.7182C35.7031 36.7265 35.6951 36.7265 35.6951 36.7346C35.6867 36.7429 35.6867 36.7594 35.6783 36.7677C35.6777 36.7738 35.6748 36.7796 35.6703 36.7841C35.6703 36.7922 35.6619 36.8089 35.6619 36.817C35.6619 36.8253 35.6619 36.8334 35.6539 36.8334C35.6539 36.8501 35.6455 36.8582 35.6455 36.8746V37.0065C35.6455 37.0229 35.6539 37.0393 35.6539 37.0561V37.0725C35.6539 37.0889 35.6619 37.0973 35.6619 37.1137C35.6619 37.1217 35.6619 37.1217 35.6703 37.1301C35.6722 37.1423 35.678 37.1539 35.6867 37.1629C35.6867 37.1713 35.6951 37.1713 35.6951 37.1796C35.7031 37.1877 35.7031 37.2041 35.7115 37.2125C35.7115 37.2208 35.7195 37.2208 35.7195 37.2289C35.7279 37.2372 35.7363 37.2537 35.7443 37.262L35.7527 37.2701C35.7607 37.2784 35.7691 37.2949 35.7775 37.3032C35.7855 37.3196 35.8019 37.3277 35.8103 37.3444L37.9935 39.5276C38.1022 39.6377 38.2506 39.7001 38.4054 39.7004C38.5583 39.7014 38.7044 39.639 38.8089 39.5276C39.0313 39.301 39.0313 38.9384 38.8089 38.7118L37.6144 37.5172L43.7604 37.5336C44.079 37.5336 44.3371 37.2755 44.3371 36.9569C44.3371 36.6387 44.079 36.3803 43.7604 36.3803L37.6063 36.3638L38.8089 35.1612C39.0342 34.936 39.0342 34.5707 38.8089 34.3454C38.5837 34.1202 38.2187 34.1202 37.9935 34.3454L35.7691 36.5698C35.7691 36.603 35.7607 36.611 35.7527 36.6194Z" fill="#2074FD"/>
<path d="M44.3371 43.0782V43.0618C44.3384 43.0502 44.3355 43.0386 44.3287 43.0289C44.3287 43.0206 44.3207 43.0122 44.3207 43.0042C44.3207 42.9958 44.3123 42.9877 44.3123 42.9794C44.3123 42.971 44.3043 42.963 44.3043 42.9546C44.3043 42.9466 44.2959 42.9382 44.2959 42.9298C44.2959 42.9218 44.2875 42.9134 44.2875 42.9054C44.2795 42.897 44.2795 42.8886 44.2711 42.8806C44.2631 42.8722 44.2631 42.8642 44.2547 42.8558C44.2463 42.8474 44.2463 42.8394 44.2383 42.831C44.2299 42.823 44.2219 42.8146 44.2219 42.8062L44.2051 42.7898C44.1958 42.7725 44.1817 42.758 44.164 42.7486L41.9891 40.5407C41.7639 40.3154 41.3986 40.3154 41.1736 40.5407C40.9484 40.7659 40.9484 41.1312 41.1736 41.3565L42.3682 42.551L36.2222 42.5346C35.9036 42.5346 35.6455 42.7927 35.6455 43.1113C35.6455 43.4296 35.9036 43.688 36.2222 43.688L42.3763 43.7044L41.1736 44.907C40.951 45.1336 40.951 45.4963 41.1736 45.7228C41.4009 45.9426 41.7616 45.9426 41.9891 45.7228L44.2135 43.4985C44.2238 43.4891 44.2322 43.4779 44.2383 43.4653C44.2383 43.4573 44.2463 43.4573 44.2463 43.4489C44.2566 43.4409 44.2628 43.429 44.2631 43.4161C44.2631 43.4077 44.2711 43.4077 44.2711 43.3997C44.2795 43.3913 44.2795 43.3829 44.2875 43.3665C44.2885 43.3604 44.2914 43.3546 44.2959 43.3501C44.3043 43.3417 44.3043 43.3337 44.3043 43.3173C44.3043 43.3089 44.3123 43.3005 44.3123 43.2925C44.3123 43.2841 44.3207 43.2761 44.3207 43.2594C44.3207 43.2513 44.3287 43.2429 44.3287 43.2349C44.3278 43.223 44.3307 43.2114 44.3371 43.2018V43.1194C44.3455 43.1194 44.3455 43.0946 44.3371 43.0782Z" fill="#2074FD"/>
</g>
<defs>
<clipPath id="clip0">
<rect width="40" height="40" fill="white" transform="translate(20 20.0001)"/>
</clipPath>
</defs>
</svg>
