<svg width="50" height="50" viewBox="0 0 50 50" fill="none" xmlns="http://www.w3.org/2000/svg">
<path d="M0 25V50H25H50V25V0H25H0V25ZM47.5 25V47.3711H25H2.5V25V2.62892H25H47.5V25Z" fill="#2074FD"/>
<path d="M34.8986 8.18988C32.4995 8.41738 30.3842 9.91384 29.288 12.1686C28.9947 12.7753 28.7928 13.3668 28.6438 14.0594C28.5476 14.5144 28.5332 14.7167 28.5332 15.5963C28.538 16.4457 28.5572 16.6884 28.6438 17.1231C29.2351 19.9998 31.2495 22.1636 33.9611 22.841C34.4467 22.9624 34.5813 22.9775 35.5044 22.9775C36.5861 22.9775 36.9034 22.932 37.7111 22.6641C39.8024 21.9715 41.562 20.1262 42.2303 17.9219C43.0524 15.2121 42.3938 12.3203 40.5044 10.3385C39.3024 9.06955 37.8169 8.34155 36.1294 8.18988C35.4995 8.13426 35.4995 8.13426 34.8986 8.18988ZM36.2015 10.9401C38.2303 11.289 39.764 13.018 39.9467 15.1515C40.1342 17.3759 38.8457 19.4234 36.8505 20.0857C36.2592 20.2829 35.6245 20.3486 35.062 20.2728C33.9659 20.1312 32.9899 19.6156 32.3024 18.8067C30.9803 17.2698 30.7351 15.0706 31.6822 13.2758C32.562 11.5923 34.4178 10.6317 36.2015 10.9401Z" fill="#1B1C1C"/>
<path d="M8.36523 15.5713V22.8008H9.66331H10.9614V20.7533V18.7057H12.2258C13.947 18.7057 14.4422 18.6147 15.3797 18.1344C16.346 17.6441 17.0864 16.8402 17.5672 15.7684C17.87 15.091 17.9902 14.5702 18.0191 13.7613C18.072 12.2345 17.6537 11.0111 16.7114 9.97469C15.8989 9.06974 14.87 8.5389 13.6537 8.39228C13.4277 8.36701 12.1489 8.34173 10.8075 8.34173H8.36523V15.5713ZM13.4998 10.9959C14.4229 11.2234 15.1441 11.9868 15.3316 12.9322C15.4518 13.544 15.37 14.2416 15.1152 14.7725C14.9422 15.1314 14.4806 15.6269 14.1393 15.819C13.6489 16.092 13.4229 16.1274 12.1297 16.1274H10.9614V13.5237V10.9201H12.0816C12.8989 10.9201 13.2787 10.9403 13.4998 10.9959Z" fill="#1B1C1C"/>
<path d="M19.2793 15.5713V22.8008H21.7985H24.3178L24.837 21.9514C25.1206 21.4863 25.4812 20.91 25.6351 20.6673C25.7889 20.4246 25.9139 20.2123 25.9139 20.1971C25.9139 20.182 25.0053 20.1719 23.8947 20.1719H21.8754V18.5288V16.8857H24.6399H27.4043V15.5713V14.2568H24.6399H21.8754L21.8851 12.6238L21.8995 10.9959L24.6543 10.9808L27.4043 10.9706V9.65619V8.34173H23.3418H19.2793V15.5713Z" fill="#1B1C1C"/>
<path d="M11.2019 26.9971C9.58173 27.174 8.38942 27.8211 7.50481 28.994C7.25481 29.3227 6.89904 29.9192 6.92788 29.9495C6.97115 29.99 9.19231 31.1477 9.20673 31.1326C9.21154 31.1224 9.27885 30.991 9.35577 30.8393C9.52885 30.5006 10.0433 29.9142 10.3221 29.7423C10.6779 29.5249 11.0865 29.4187 11.6827 29.3884C12.3317 29.358 12.6875 29.4137 13.1058 29.6209C13.4808 29.808 13.7692 30.081 13.9327 30.4046C14.1106 30.7584 14.1154 31.4207 13.9471 31.8707C13.7548 32.3762 13.3077 32.7605 12.7308 32.9121C12.6154 32.9425 12.0192 32.9829 11.4038 32.9981L10.2885 33.0284L10.2981 34.2721L10.3125 35.5158L11.5625 35.5461C12.8702 35.5714 12.9231 35.5815 13.399 35.8393C13.6635 35.9809 13.9663 36.355 14.0721 36.6685C14.1923 37.0476 14.1827 37.6594 14.0433 38.0234C13.9279 38.3419 13.6298 38.7261 13.3702 38.898C12.5192 39.4642 11.1683 39.4288 10.2115 38.8221C9.87981 38.6098 9.42788 38.1447 9.17308 37.7554C9.0625 37.5785 8.95673 37.4672 8.92308 37.4774C8.88942 37.4925 8.37019 37.8717 7.77404 38.3267L6.6875 39.1457L6.84135 39.3732C7.09135 39.7322 7.6875 40.354 8.09615 40.6725C8.81731 41.2337 9.64423 41.5775 10.625 41.7392C11.1731 41.8252 12.375 41.8353 12.9038 41.7595C14.9135 41.4612 16.375 40.1265 16.7115 38.2863C16.7981 37.7908 16.7981 36.9971 16.7019 36.5117C16.5433 35.6776 16.0192 34.8636 15.3317 34.3833L15.0529 34.1862L15.2452 34.0446C15.7788 33.6604 16.3269 32.7857 16.5192 32.0274C16.6346 31.5724 16.6587 30.6371 16.5721 30.1973C16.2404 28.5795 15 27.4521 13.1298 27.078C12.6346 26.9768 11.726 26.9415 11.2019 26.9971Z" fill="#1B1C1C"/>
<path d="M34.8313 27.0021C33.9419 27.0931 33.1822 27.3256 32.3697 27.7604C31.6486 28.1396 31.1294 28.539 30.5765 29.1254C29.5861 30.177 28.9611 31.3903 28.6438 32.8666C28.5476 33.3216 28.5332 33.5289 28.5332 34.4035C28.5332 35.2781 28.5476 35.4854 28.6438 35.9404C29.264 38.8372 31.2495 40.9758 33.9563 41.6482C34.4467 41.7695 34.5813 41.7796 35.5044 41.7847C36.5861 41.7847 36.8986 41.7392 37.7159 41.4712C40.7928 40.45 42.8361 37.1992 42.5476 33.7766C42.4755 32.8767 42.4995 32.907 42.139 33.2609C41.6342 33.7564 40.8842 34.0698 40.2111 34.0749H39.9611L39.9563 34.5198C39.9467 36.0516 39.1678 37.5026 37.8938 38.3772C36.538 39.3125 34.663 39.3378 33.264 38.4429C31.3361 37.2144 30.5669 34.5754 31.514 32.4267C32.5476 30.0708 35.0765 29.0647 37.3601 30.1011C37.4178 30.1264 37.4803 30.0354 37.6438 29.6916C37.9226 29.0951 38.3745 28.6199 38.9322 28.3266L39.3313 28.1194L39.0092 27.9272C38.139 27.4166 37.1678 27.0981 36.1967 27.0021C35.5909 26.9414 35.3986 26.9414 34.8313 27.0021Z" fill="#1B1C1C"/>
<path d="M21.8986 27.8667C21.0284 29.353 20.0861 30.9607 19.2784 32.3308C18.4082 33.8121 18.1438 34.3631 17.9563 35.0962C17.4419 37.1134 17.8601 39.0143 19.1053 40.3237C20.0572 41.3247 21.2495 41.8101 22.7495 41.8101C25.5284 41.8101 27.5428 39.8636 27.6774 37.0578C27.7736 34.9294 26.8265 33.1144 25.1582 32.2347C24.5332 31.9061 24.163 31.8252 23.3072 31.8252H22.5524L22.6294 31.6988C22.6967 31.5977 23.8409 29.7322 24.538 28.5896C24.6245 28.4481 24.8505 28.0841 25.038 27.7757C25.2303 27.4673 25.3842 27.1993 25.3842 27.1842C25.3842 27.164 24.6967 27.1488 23.8505 27.1488H22.3169L21.8986 27.8667ZM23.2544 34.2469C24.2784 34.535 25.014 35.4754 25.0813 36.5826C25.1149 37.0831 25.0476 37.4117 24.8217 37.9021C24.4515 38.7009 23.5236 39.3328 22.7111 39.3328C21.288 39.3328 20.1149 37.8869 20.3313 36.4006C20.5236 35.0962 21.4707 34.1862 22.6438 34.1811C22.8409 34.1761 23.1197 34.2115 23.2544 34.2469Z" fill="#1B1C1C"/>
<path d="M39.63 29.2113C38.5868 29.6006 38.0916 30.8089 38.5531 31.8301C38.7935 32.366 39.1204 32.6693 39.6541 32.8564C40.5819 33.185 41.6012 32.6542 41.9281 31.6633C42.005 31.4358 42.0243 31.279 42.0098 30.9403C41.981 30.187 41.6493 29.6511 40.981 29.2972C40.6204 29.1051 40.0194 29.0647 39.63 29.2113Z" fill="#2074FD"/>
</svg>
