<svg width="60" height="60" viewBox="0 0 60 60" fill="none" xmlns="http://www.w3.org/2000/svg">
<path d="M30 60C46.5685 60 60 46.5685 60 30C60 13.4315 46.5685 0 30 0C13.4315 0 0 13.4315 0 30C0 46.5685 13.4315 60 30 60Z" fill="#F5F9FE"/>
<path d="M35.2667 38.1004L33.1221 35.9557C32.7093 35.543 32.1604 35.3156 31.5767 35.3156C30.9928 35.3156 30.444 35.543 30.0312 35.9558L29.6381 36.3489C29.3372 36.6497 28.9655 36.796 28.5018 36.796C28.5018 36.796 28.5017 36.796 28.5016 36.796C26.7871 36.7959 24.3494 34.8238 23.4854 32.7379C23.1903 32.0257 22.9798 31.0355 23.6522 30.3631L24.0486 29.9667C24.4617 29.5536 24.689 29.0044 24.6887 28.4202C24.6884 27.836 24.4605 27.2869 24.047 26.8742L21.9001 24.7318C21.4875 24.3201 20.9392 24.0933 20.3562 24.0933C19.7724 24.0933 19.2236 24.3206 18.8108 24.7334L17.7374 25.8067C15.805 27.7392 15.4724 30.569 16.8007 33.7752C17.8332 36.2672 19.8167 38.8201 22.2426 40.7791C24.815 42.8564 27.5282 44.0002 29.8832 44.0002H29.8845C31.5924 43.9999 33.0424 43.4157 34.1944 42.2636L35.2667 41.1914C35.6796 40.7786 35.9069 40.2297 35.9069 39.6459C35.9069 39.0621 35.6796 38.5132 35.2667 38.1004Z" fill="#2074FD"/>
<path d="M36.3163 16C32.0792 16 28.6321 19.4471 28.6321 23.6841C28.6321 24.7931 28.8621 25.859 29.3163 26.8572L28.1816 31.8454L33.1916 30.7058C34.1763 31.1456 35.226 31.3683 36.3163 31.3683C40.5534 31.3683 44.0004 27.9212 44.0004 23.6841C44.0004 19.4471 40.5533 16 36.3163 16ZM35.4358 26.8245L32.6155 24.0042L33.7756 22.844L35.4358 24.5042L38.8265 21.1135L39.9866 22.2736L35.4358 26.8245Z" fill="#2074FD"/>
</svg>
