<svg width="80" height="80" viewBox="0 0 80 80" fill="none" xmlns="http://www.w3.org/2000/svg">
<rect width="80" height="80" rx="8" fill="#2074FD" fill-opacity="0.2"/>
<path d="M56.8408 33.0483H62.0054V59.5392H56.8408V33.0483Z" fill="#2074FD"/>
<path d="M48.2734 39.1041H53.4483V59.5293H48.2734V39.1041Z" fill="#2074FD"/>
<path d="M39.7061 45.9798H44.8706V59.5392H39.7061V45.9798Z" fill="#2074FD"/>
<path d="M63.2911 60.248H16.7089C16.3172 60.248 16 59.9307 16 59.5391C16 59.1479 16.3172 58.8303 16.7089 58.8303H63.2911C63.6828 58.8303 64 59.1479 64 59.5391C64 59.9307 63.6828 60.248 63.2911 60.248Z" fill="#2074FD"/>
<path d="M62.704 27.8935L61.2051 20.4204C61.1664 20.2349 61.0576 20.0719 60.9013 19.9647C60.7684 19.8726 60.6062 19.833 60.4456 19.8532C60.3167 19.8401 60.1865 19.8651 60.071 19.924L52.8914 21.4026C52.5081 21.4837 52.2633 21.8599 52.3444 22.2432C52.4255 22.6261 52.802 22.871 53.185 22.7899L59.0584 21.585C57.5916 24.2223 55.6917 26.5949 53.4381 28.6024C51.2672 30.5272 48.8242 32.121 46.1877 33.3318C41.5801 35.4683 37.7522 35.8935 37.6913 35.9038C37.3163 35.9462 37.0394 36.2741 37.0607 36.6511C37.0825 37.028 37.395 37.3223 37.7724 37.3216H37.8432C38.0053 37.3014 41.914 36.8761 46.7447 34.6483C49.5168 33.3829 52.0865 31.714 54.3697 29.6962C56.6917 27.6337 58.6557 25.2005 60.1826 22.4964L61.3167 28.1875C61.3863 28.5178 61.6778 28.7543 62.0153 28.7543C62.0627 28.7563 62.1106 28.7527 62.1573 28.7444C62.535 28.6495 62.7744 28.2772 62.704 27.8935Z" fill="#2074FD"/>
<path fill-rule="evenodd" clip-rule="evenodd" d="M36.9622 46.3846C36.9622 40.8149 32.4254 36.2884 26.8356 36.2884C21.2489 36.2845 16.7161 40.8082 16.709 46.3948C16.709 51.9743 21.2458 56.491 26.8356 56.491C32.4222 56.4949 36.955 51.9712 36.9622 46.3846ZM24.6479 43.4278C24.6479 44.6359 25.6274 45.6149 26.8354 45.6149C28.6875 45.6165 30.2373 47.0208 30.4205 48.8641C30.6032 50.7071 29.36 52.3887 27.5443 52.7542V53.838C27.5443 54.2292 27.2271 54.5469 26.8354 54.5469C26.4438 54.5469 26.1266 54.2292 26.1266 53.838V52.7542C24.443 52.416 23.2314 50.9373 23.2302 49.2201C23.2302 48.8285 23.5479 48.5113 23.9391 48.5113C24.3307 48.5113 24.6479 48.8285 24.6479 49.2201C24.6468 50.4171 25.6084 51.3922 26.805 51.4076H26.8659C28.074 51.3989 29.0463 50.4132 29.038 49.2051C29.0297 47.997 28.0435 47.0243 26.8354 47.0326C24.9834 47.0315 23.4336 45.6268 23.2504 43.7838C23.0676 41.9409 24.3109 40.2589 26.1266 39.8934V38.9417C26.1266 38.5501 26.4438 38.2328 26.8354 38.2328C27.2271 38.2328 27.5443 38.5501 27.5443 38.9417V39.8934C29.2279 40.232 30.4395 41.7103 30.4407 43.4278C30.4407 43.819 30.123 44.1367 29.7318 44.1367C29.3402 44.1367 29.0229 43.819 29.0229 43.4278C29.0229 42.2198 28.0435 41.2403 26.8354 41.2403C25.6274 41.2403 24.6479 42.2198 24.6479 43.4278Z" fill="#2074FD"/>
</svg>
