<svg width="60" height="60" viewBox="0 0 60 60" fill="none" xmlns="http://www.w3.org/2000/svg">
<path d="M30 60C46.5685 60 60 46.5685 60 30C60 13.4315 46.5685 0 30 0C13.4315 0 0 13.4315 0 30C0 46.5685 13.4315 60 30 60Z" fill="#F5F9FE"/>
<g clip-path="url(#clip0)">
<path d="M20.004 33.2083H16.4788C15.846 33.2083 15.333 33.7213 15.333 34.3541V43.5208C15.333 44.1537 15.846 44.6666 16.4788 44.6666H20.004C20.6368 44.6666 21.1498 44.1537 21.1498 43.5208V34.3541C21.1498 33.7213 20.6368 33.2083 20.004 33.2083Z" fill="#2074FD"/>
<path d="M44.1076 32.6653C43.3894 31.9471 42.2342 31.9182 41.4809 32.5996L37.3311 36.3543C37.333 36.4035 37.3349 36.4527 37.3349 36.5023C37.3349 38.6347 35.6001 40.3695 33.4677 40.3695H28.0564C27.5818 40.3695 27.197 39.9848 27.197 39.5101C27.197 39.0355 27.5818 38.6508 28.0564 38.6508H33.4677C34.6543 38.6508 35.6161 37.6889 35.6161 36.5023C35.6161 35.3158 34.6543 34.3539 33.4677 34.3539H28.7145C27.6148 33.633 26.3406 33.2654 25.0238 33.2883C24.2796 33.3017 23.5531 33.4402 22.8682 33.6952V43.5206H34.1586C35.6667 43.5206 37.1204 42.8867 38.1467 41.7815L44.1564 35.3102C44.8542 34.5589 44.8326 33.3903 44.1076 32.6653Z" fill="#2074FD"/>
<path d="M25.5642 31.8274H38.075C40.0374 31.8274 41.2804 29.7221 40.3324 28.0038L34.077 16.6659C33.0966 14.889 30.5426 14.889 29.5623 16.6659L23.3069 28.0038C22.3589 29.7221 23.6018 31.8274 25.5642 31.8274ZM30.9602 20.9419C30.9602 20.4673 31.345 20.0826 31.8196 20.0826C32.2942 20.0826 32.679 20.4673 32.679 20.9419V24.6659C32.679 25.1405 32.2942 25.5253 31.8196 25.5253C31.345 25.5253 30.9602 25.1405 30.9602 24.6659V20.9419ZM31.8196 26.6711C32.2942 26.6711 32.679 27.0559 32.679 27.5305C32.679 28.0051 32.2942 28.3899 31.8196 28.3899C31.345 28.3899 30.9602 28.0051 30.9602 27.5305C30.9602 27.0559 31.345 26.6711 31.8196 26.6711Z" fill="#2074FD"/>
</g>
<defs>
<clipPath id="clip0">
<rect width="29.3333" height="29.3333" fill="white" transform="translate(15.333 15.3333)"/>
</clipPath>
</defs>
</svg>
