<svg width="60" height="60" viewBox="0 0 60 60" fill="none" xmlns="http://www.w3.org/2000/svg">
<path d="M30 60C46.5685 60 60 46.5685 60 30C60 13.4315 46.5685 0 30 0C13.4315 0 0 13.4315 0 30C0 46.5685 13.4315 60 30 60Z" fill="#F5F9FE"/>
<path d="M37.9102 22.4707V31.6995L44.1211 27.0854L37.9102 22.4707Z" fill="#2074FD"/>
<path d="M30.527 39.4333C30.3708 39.5509 30.1854 39.6093 30 39.6093C29.8146 39.6093 29.6292 39.5509 29.473 39.4333L15 28.6228V44.121C15 44.6068 15.3931 44.9999 15.8789 44.9999H44.1211C44.6069 44.9999 45 44.6068 45 44.121V28.6225L30.527 39.4333Z" fill="#2074FD"/>
<path d="M22.0901 31.6995V22.4707L15.8789 27.0855L22.0901 31.6995Z" fill="#2074FD"/>
<path d="M34.3945 15C33.6962 15 25.7098 15 24.7266 15C24.2412 15 23.8477 15.3935 23.8477 15.8789V33.0179L30 37.6318L36.1523 33.0177V16.7578C36.1523 15.787 35.3654 15 34.3945 15ZM30.8789 30.6584V31.6992C30.8789 32.185 30.4858 32.5781 30 32.5781C29.5142 32.5781 29.1211 32.185 29.1211 31.6992V30.6606C28.755 30.5312 28.4163 30.3298 28.134 30.0469C27.7924 29.7036 27.7924 29.1466 28.1357 28.8041C28.479 28.4625 29.037 28.4608 29.3803 28.8058C29.885 29.3114 30.8789 28.9046 30.8789 28.1836C30.8789 27.6987 30.4841 27.3047 30 27.3047C28.5461 27.3047 27.3633 26.1219 27.3633 24.668C27.3633 23.5236 28.1003 22.5572 29.1211 22.1931V21.1523C29.1211 20.6665 29.5142 20.2734 30 20.2734C30.4858 20.2734 30.8789 20.6665 30.8789 21.1523V22.1909C31.245 22.3204 31.5837 22.5218 31.866 22.8046C32.2076 23.1479 32.2076 23.705 31.8643 24.0475C31.521 24.3891 30.963 24.3908 30.6197 24.0458C30.115 23.5393 29.1211 23.9479 29.1211 24.668C29.1211 25.1529 29.5159 25.5469 30 25.5469C31.4539 25.5469 32.6367 26.7296 32.6367 28.1836C32.6367 29.3279 31.8997 30.2944 30.8789 30.6584Z" fill="#2074FD"/>
</svg>
